# xmcd
#
# Track frame offsets:
#	150
#	15962
#	29847
#	51725
#	70600
#	90557
#	109685
#	126220
#	144327
#	163642
#	184747
#
# Disc length: 2715 seconds
#
# Revision: 0
# Processed by: cddbd v1.5.1PL2 Copyright (c) Steve Scherf et al.
# Submitted via: dBpowerAMP V4.0
#
DISCID=920a990b
DTITLE=Tommy Dukes - Keeping The Blues Alive
DYEAR=1996
DGENRE=Blues
TTITLE0=I Got Stranded
TTITLE1=Black Belt Woman
TTITLE2=Who You Been Giving It To?
TTITLE3=Bad Day
TTITLE4=Bus Driver
TTITLE5=Papa Won't
TTITLE6=Who Was It?
TTITLE7=Fuss And Fight
TTITLE8=City Blues
TTITLE9=Separate Ways
TTITLE10=Something Freaky
EXTD=
EXTT0=
EXTT1=
EXTT2=
EXTT3=
EXTT4=
EXTT5=
EXTT6=
EXTT7=
EXTT8=
EXTT9=
EXTT10=
PLAYORDER=
